<svg height="452pt" viewBox="0 -20 452.001 452" width="452pt" xmlns="http://www.w3.org/2000/svg"><path d="m6 411.6875h434.957031c3.3125 0 6-2.683594 6-6v-102.214844c0-3.3125-2.6875-6-6-6h-32.058593v-133.441406c-.011719-10.375-8.417969-18.78125-18.792969-18.792969h-34.378907v-95.945312h35.5v1.886719c0 16.785156 13.605469 30.390624 30.386719 30.390624s30.386719-13.605468 30.386719-30.390624v-26.316407c0-3.3125-2.683594-6-6-6h-44.835938c-4.488281-11.371093-15.464843-18.847656-27.6875-18.863281h-110.441406c-16.359375.0195312-29.617187 13.28125-29.636718 29.644531v115.601563h-59.378907v-45.640625h45.109375c3.3125 0 6-2.683594 6-6v-38.0625c0-3.3125-2.6875-6-6-6h-130.488281c-3.3125 0-6 2.6875-6 6v38.058593c0 3.316407 2.6875 6 6 6h45.109375v45.632813h-53.941406c-8.613282-.007813-16.125 5.847656-18.222656 14.199219l-34.792969 138.039062h-20.792969c-3.3125 0-6 2.6875-6 6v102.214844c0 3.316406 2.6875 6 6 6zm428.957031-12h-26.058593v-90.214844h26.0625zm-38.058593-235.65625v133.441406h-50.828126l35.710938-140.234375h8.324219c3.75.003907 6.789062 3.042969 6.792969 6.792969zm6.328124-133.167969h36.773438v20.316407c0 10.15625-8.230469 18.390624-18.386719 18.390624s-18.386719-8.234374-18.386719-18.390624zm-29.75-18.863281c9.796876.011719 17.738282 7.953125 17.75 17.75v7.542969h-35.5v-7.542969c.011719-9.796875 7.949219-17.738281 17.75-17.75zm-128.078124 17.644531c.011718-9.738281 7.902343-17.628906 17.640624-17.640625h86.578126c-3.828126 5.125-5.894532 11.351563-5.886719 17.75v146.859375h-98.332031zm-150.757813 31.898438h118.488281v26.058593h-118.488281zm51.109375 38.058593h16.269531v45.632813h-16.269531zm-72.527344 62.765626c.757813-3.019532 3.472656-5.136719 6.585938-5.132813h153.589844v25.375c0 3.316406 2.6875 6 6 6h110.328124c3.3125 0 6-2.683594 6-6v-25.371094h13.671876l-35.710938 140.234375h-294.519531zm-61.222656 147.105468h384.898438v90.214844h-384.898438zm0 0"/><path d="m213.28125 174.597656h-111.78125c-2.703125 0-5.070312 1.804688-5.785156 4.410156l-14.058594 51.105469c-.496094 1.804688-.121094 3.738281 1.015625 5.230469 1.132813 1.488281 2.898437 2.363281 4.769531 2.363281h110.507813c2.648437 0 4.984375-1.738281 5.746093-4.277343l15.332032-51.105469c.546875-1.820313.199218-3.785157-.933594-5.308594-1.128906-1.519531-2.914062-2.417969-4.8125-2.417969zm-19.800781 51.109375h-98.164063l10.753906-39.109375h99.148438zm0 0"/><path d="m269.710938 209.957031c0-3.3125-2.683594-6-6-6h-5.4375c-3.3125 0-6 2.6875-6 6s2.6875 6 6 6h5.4375c3.316406 0 6-2.6875 6-6zm0 0"/><path d="m302.335938 209.957031c0-3.3125-2.6875-6-6-6h-6.527344c-3.3125 0-6 2.6875-6 6s2.6875 6 6 6h6.527344c3.3125 0 6-2.6875 6-6zm0 0"/><path d="m333.867188 209.957031c0-3.3125-2.683594-6-6-6h-6.523438c-3.3125 0-6 2.6875-6 6s2.6875 6 6 6h6.523438c3.316406 0 6-2.6875 6-6zm0 0"/><path d="m256.101562 232.230469h-5.441406c-3.3125 0-6 2.683593-6 6 0 3.3125 2.6875 6 6 6h5.441406c3.3125 0 6-2.6875 6-6 0-3.316407-2.6875-6-6-6zm0 0"/><path d="m288.722656 232.230469h-6.523437c-3.3125 0-6 2.683593-6 6 0 3.3125 2.6875 6 6 6h6.527343c3.3125 0 6-2.6875 6-6 0-3.316407-2.6875-6-6-6zm0 0"/><path d="m320.257812 232.230469h-6.527343c-3.3125 0-6 2.683593-6 6 0 3.3125 2.6875 6 6 6h6.527343c3.3125 0 6-2.6875 6-6 0-3.316407-2.6875-6-6-6zm0 0"/><path d="m245.226562 258.328125h-6.527343c-3.3125 0-6 2.683594-6 6 0 3.3125 2.6875 6 6 6h6.527343c3.3125 0 6-2.6875 6-6 0-3.316406-2.6875-6-6-6zm0 0"/><path d="m276.761719 258.328125h-6.527344c-3.3125 0-6 2.683594-6 6 0 3.3125 2.6875 6 6 6h6.527344c3.3125 0 6-2.6875 6-6 0-3.316406-2.6875-6-6-6zm0 0"/><path d="m309.382812 258.328125h-6.523437c-3.316406 0-6 2.683594-6 6 0 3.3125 2.683594 6 6 6h6.523437c3.3125 0 6-2.6875 6-6 0-3.316406-2.6875-6-6-6zm0 0"/><path d="m203.90625 260.5h-19.574219c-3.3125 0-6 2.6875-6 6 0 3.316406 2.6875 6 6 6h19.574219c3.3125 0 6-2.683594 6-6 0-3.3125-2.6875-6-6-6zm0 0"/><path d="m157.148438 260.5h-22.835938c-3.3125 0-6 2.6875-6 6 0 3.316406 2.6875 6 6 6h22.835938c3.3125 0 6-2.683594 6-6 0-3.3125-2.6875-6-6-6zm0 0"/><path d="m106.039062 260.5h-22.835937c-3.3125 0-6 2.6875-6 6 0 3.316406 2.6875 6 6 6h22.835937c3.316407 0 6-2.683594 6-6 0-3.3125-2.683593-6-6-6zm0 0"/><path d="m186.398438 326.636719c-12.320313 0-22.308594 9.988281-22.308594 22.3125-.003906 12.320312 9.988281 22.3125 22.308594 22.3125 12.324218 0 22.3125-9.992188 22.3125-22.3125-.015626-12.316407-9.996094-22.296875-22.3125-22.3125zm0 32.625c-5.691407 0-10.308594-4.617188-10.308594-10.3125-.003906-5.691407 4.613281-10.308594 10.308594-10.3125 5.695312 0 10.3125 4.617187 10.3125 10.3125-.007813 5.691406-4.621094 10.304687-10.3125 10.3125zm0 0"/><path d="m330.898438 35.457031h-9.8125c-3.316407 0-6 2.6875-6 6s2.683593 6 6 6h9.8125c3.316406 0 6-2.6875 6-6s-2.683594-6-6-6zm0 0"/><path d="m256.699219 47.457031h47.429687c3.316406 0 6-2.6875 6-6s-2.683594-6-6-6h-47.429687c-3.3125 0-6 2.6875-6 6s2.6875 6 6 6zm0 0"/><path d="m330.898438 147.953125h-39.492188c-3.3125 0-6 2.683594-6 6 0 3.3125 2.6875 6 6 6h39.492188c3.316406 0 6-2.6875 6-6 0-3.316406-2.683594-6-6-6zm0 0"/><path d="m274.035156 147.953125h-.277344c-3.316406 0-6 2.683594-6 6 0 3.3125 2.683594 6 6 6h.277344c3.3125 0 6-2.6875 6-6 0-3.316406-2.6875-6-6-6zm0 0"/><path d="m256.6875 147.953125c-3.316406 0-6 2.683594-6 6 0 3.3125 2.683594 6 6 6h.007812c3.3125-.003906 5.996094-2.691406 5.996094-6.007813-.003906-3.3125-2.691406-5.996093-6.003906-5.992187zm0 0"/><path d="m330.898438 62.945312h-9.8125c-3.316407 0-6 2.683594-6 6 0 3.3125 2.683593 6 6 6h9.8125c3.316406 0 6-2.6875 6-6 0-3.316406-2.683594-6-6-6zm0 0"/><path d="m256.699219 74.945312h47.429687c3.316406 0 6-2.6875 6-6 0-3.316406-2.683594-6-6-6h-47.429687c-3.3125 0-6 2.683594-6 6 0 3.3125 2.6875 6 6 6zm0 0"/><path d="m330.898438 90.433594h-9.8125c-3.316407 0-6 2.683594-6 6 0 3.3125 2.683593 6 6 6h9.8125c3.316406 0 6-2.6875 6-6 0-3.316406-2.683594-6-6-6zm0 0"/><path d="m256.699219 102.433594h47.429687c3.316406 0 6-2.6875 6-6 0-3.316406-2.683594-6-6-6h-47.429687c-3.3125 0-6 2.683594-6 6 0 3.3125 2.6875 6 6 6zm0 0"/><path d="m330.898438 117.917969h-9.8125c-3.316407 0-6 2.6875-6 6 0 3.316406 2.683593 6 6 6h9.8125c3.316406 0 6-2.683594 6-6 0-3.3125-2.683594-6-6-6zm0 0"/><path d="m256.699219 129.917969h47.429687c3.316406 0 6-2.683594 6-6 0-3.3125-2.683594-6-6-6h-47.429687c-3.3125 0-6 2.6875-6 6 0 3.316406 2.6875 6 6 6zm0 0"/></svg>